<?xml version="1.0" ?><!-- Uploaded to: SVG Repo, www.svgrepo.com, Generator: SVG Repo Mixer Tools -->
<svg fill="#000000" width="800px" height="800px" viewBox="0 0 32 32" xmlns="http://www.w3.org/2000/svg" id="Layer_1" data-name="Layer 1"><path d="M7.38,30.74H24.62c.41,0,.75-.34,.75-.75V14.59c0-.41-.34-.75-.75-.75h-2.66v-5.38c0-.2-.08-.39-.21-.52,.43-.65,.67-1.43,.67-2.23,0-1.35-.67-2.6-1.78-3.37-.26-.17-.59-.17-.85,0-1.12,.76-1.78,2.02-1.78,3.37,0,.8,.24,1.57,.67,2.23-.13,.14-.21,.32-.21,.52v5.38h-5.52v-5.38c0-.2-.08-.39-.21-.52,.43-.65,.67-1.43,.67-2.23,0-1.35-.67-2.6-1.78-3.37-.26-.17-.59-.17-.85,0-1.12,.76-1.78,2.02-1.78,3.37,0,.8,.24,1.57,.67,2.23-.13,.14-.21,.32-.21,.52v5.38h-2.07c-.41,0-.75,.34-.75,.75v15.4c0,.41,.34,.75,.75,.75Zm16.49-5.27H8.13v-6.83c.14,.1,.27,.23,.44,.39,.46,.46,1.08,1.08,2.25,1.08s1.8-.63,2.25-1.08c.43-.43,.66-.64,1.19-.64s.76,.21,1.19,.64c.46,.46,1.08,1.08,2.25,1.08s1.8-.63,2.26-1.08c.43-.43,.67-.64,1.19-.64s.76,.21,1.2,.64c.35,.35,.79,.79,1.51,.98v5.46Zm0,3.77H8.13v-2.27h15.74v2.27ZM20.21,3.94c.45,.48,.71,1.11,.71,1.77s-.26,1.29-.71,1.77c-.45-.48-.71-1.11-.71-1.77s.26-1.29,.71-1.77Zm-.25,5.27h.5v4.63h-.5v-4.63ZM11.2,3.94c.45,.48,.71,1.11,.71,1.77s-.26,1.29-.71,1.77c-.45-.48-.71-1.11-.71-1.77s.26-1.29,.71-1.77Zm-.25,5.27h.5v4.63h-.5v-4.63Zm-.75,6.13h13.67v3.02c-.14-.1-.28-.23-.45-.4-.46-.46-1.08-1.08-2.26-1.08s-1.8,.63-2.26,1.08c-.43,.43-.67,.64-1.2,.64s-.76-.21-1.19-.64c-.46-.46-1.08-1.08-2.25-1.08s-1.8,.63-2.25,1.08c-.43,.43-.67,.64-1.19,.64s-.76-.21-1.19-.64c-.35-.35-.79-.79-1.5-.98v-1.64h2.07Z"/></svg>